<svg xmlns="http://www.w3.org/2000/svg" viewBox="0 0 1000.27 411.06"><title>att</title><path fill="#111" d="M925.45,287.92a4.31,4.31,0,0,1-4.52-4.52V150.87h-45a4.31,4.31,0,0,1-4.52-4.52V128.07a4.32,4.32,0,0,1,4.52-4.53H995.75a4.31,4.31,0,0,1,4.52,4.53v18.28a4.31,4.31,0,0,1-4.52,4.52h-45V283.4a4.32,4.32,0,0,1-4.52,4.52H925.45M580.58,221.76,557,154l-23.84,67.8ZM633,282.57a3.76,3.76,0,0,1-3.49,5.35H608.14c-3.09,0-4.94-1.43-6-4.32L590,248.68H523.66L511.52,283.6c-1,2.89-2.88,4.32-6,4.32H485.43a3.84,3.84,0,0,1-3.5-5.35l55.7-154.91c1-2.89,2.88-4.11,6-4.11h27.54c3.09,0,5.14,1.23,6.17,4.11L633,282.57m159.66-16.84c13.15,0,22-6.36,29.19-17.25l-33.29-35.76c-12.75,7.2-21,14.38-21,28.77,0,14.18,11.51,24.24,25.08,24.24m9.25-120.41c-10.68,0-16.85,6.79-16.85,15.83,0,7,3.69,13.15,12.12,22.19,14.59-8.43,20.76-13.56,20.76-22.6,0-8.43-5.34-15.42-16-15.42M893,282.17c2.67,2.88,1,5.75-2.27,5.75H864.6c-3.49,0-5.34-.83-7.6-3.5l-15.62-17.25c-10.48,14-25.09,24.45-49.34,24.45-30,0-53.65-18.08-53.65-49.1,0-23.84,12.75-36.58,32.08-47.27-9.46-10.89-13.77-22.4-13.77-32.46,0-25.49,17.88-42.95,44.8-42.95,27.54,0,44.4,16.24,44.4,40.27,0,20.55-14.8,32-30.42,40.68l23,24.87,12.95-22.61c1.64-2.67,3.49-3.7,6.78-3.7h19.93c3.29,0,5.14,2.27,3.09,5.76l-23,39.44L893,282.17m-205.13,5.75a4.33,4.33,0,0,0,4.53-4.52V150.87h45a4.31,4.31,0,0,0,4.52-4.52V128.07a4.32,4.32,0,0,0-4.52-4.53H617.55a4.32,4.32,0,0,0-4.52,4.53v18.28a4.31,4.31,0,0,0,4.52,4.52h45V283.4a4.32,4.32,0,0,0,4.53,4.52h20.77Z" transform="translate(0 0)"/><path d="M79.53,367.86a205.57,205.57,0,0,0,261.54-7.75c.44-.39.22-.64-.21-.39-16.22,10.83-62.45,34.48-135.24,34.48-63.26,0-103.24-14.11-125.82-26.72-.43-.21-.59.11-.27.38m140,10.51c50.6,0,106.2-13.79,139.45-41.1,9.1-7.44,17.77-17.34,25.53-30.65A197.18,197.18,0,0,0,397,280.94c.16-.44-.11-.65-.44-.16C365.59,326.29,276,354.67,183.58,354.67c-65.36,0-135.68-20.9-163.21-60.81-.27-.37-.54-.21-.38.21,25.65,54.51,103.46,84.29,199.58,84.29m-55.28-90.44c-105.23,0-154.85-49-163.85-82.46-.11-.48-.43-.38-.43.06C0,216.79,1.13,231.32,3.07,241,4,245.66,7.81,253,13.41,258.9c25.48,26.56,89,63.78,199,63.78,149.9,0,184.18-49.93,191.18-66.36,5-11.74,7.6-33,7.6-50.79,0-4.31-.11-7.76-.27-11.14,0-.55-.32-.59-.43-.06C403,234.51,275,287.93,164.29,287.93M19.82,117.36c-6,12-12.71,32.16-14.7,42.61-.87,4.48-.5,6.63,1.07,10,12.61,26.76,76.41,69.58,225.23,69.58,90.79,0,161.32-22.3,172.74-63,2.1-7.49,2.22-15.4-.49-26.06-3-11.91-8.68-25.8-13.46-35.56-.16-.32-.44-.27-.38.11,1.78,53.39-147.1,87.79-222.22,87.79-81.36,0-149.25-32.42-149.25-73.35a50,50,0,0,1,1.83-12c.1-.37-.22-.44-.38-.11M341.4,51.81a8.31,8.31,0,0,1,1.3,4.74c0,22.84-69.89,63.23-181.15,63.23-81.75,0-97.05-30.33-97.05-49.61,0-6.89,2.64-13.95,8.47-21.11.32-.43,0-.59-.32-.27A206,206,0,0,0,43.7,78.85C39.61,84,37.07,88.6,37.07,91.35c0,40,100.22,68.94,193.92,68.94,99.84,0,144.4-32.59,144.4-61.24,0-10.24-4-16.21-14.18-27.8a242.33,242.33,0,0,0-19.5-19.72c-.32-.26-.54,0-.32.27M310.79,29A205.41,205.41,0,0,0,99,29.84C89.71,35.55,84.48,40.12,84.48,46c0,17.34,40.51,36,112.39,36,71.13,0,126.3-20.42,126.3-40.07,0-4.69-4.1-8-12.4-12.93" transform="translate(0 0)" fill="#00a8e0"/></svg>