<svg xmlns="http://www.w3.org/2000/svg" viewBox="0 0 206.51 58.29"><title>cruk</title><path d="M181.88,4.52A4.51,4.51,0,1,1,177.37,0a4.51,4.51,0,0,1,4.52,4.52" fill="#004fa2"/><path d="M190.09,12.72a4.52,4.52,0,1,1-4.51-4.52,4.52,4.52,0,0,1,4.51,4.52" fill="#004fa2"/><path d="M198.3,20.93a4.51,4.51,0,1,1-4.51-4.52,4.52,4.52,0,0,1,4.51,4.52" fill="#004fa2"/><path d="M206.51,29.14A4.52,4.52,0,1,1,202,24.63a4.52,4.52,0,0,1,4.52,4.51" fill="#eb008b"/><path d="M181.88,20.93a4.51,4.51,0,1,1-4.52-4.52,4.52,4.52,0,0,1,4.52,4.52" fill="#004fa2"/><path d="M190.09,29.14a4.52,4.52,0,1,1-4.51-4.51,4.51,4.51,0,0,1,4.51,4.51" fill="#004fa2"/><path d="M198.3,37.35a4.51,4.51,0,1,1-4.51-4.51,4.52,4.52,0,0,1,4.51,4.51" fill="#004fa2"/><path d="M181.88,37.35a4.51,4.51,0,1,1-4.52-4.51,4.51,4.51,0,0,1,4.52,4.51" fill="#004fa2"/><path d="M190.09,45.56A4.52,4.52,0,1,1,185.58,41a4.51,4.51,0,0,1,4.51,4.52" fill="#004fa2"/><path d="M181.88,53.77a4.51,4.51,0,1,1-4.52-4.51,4.51,4.51,0,0,1,4.52,4.51" fill="#004fa2"/><path d="M33,33.16c-.42-.74-.64-1.61-.64-4s.22-3.28.64-4a4.09,4.09,0,0,1,3.78-2,3.68,3.68,0,0,1,4.07,3.41H39.1a2.07,2.07,0,0,0-2.24-1.79,2.25,2.25,0,0,0-2,.91c-.49.66-.63,1.45-.63,3.51s.14,2.84.63,3.5a2.25,2.25,0,0,0,2,.91,2.07,2.07,0,0,0,2.24-1.79h1.79a3.68,3.68,0,0,1-4.07,3.41,4.09,4.09,0,0,1-3.78-2" fill="#004fa2"/><path d="M.64,33.16c-.42-.74-.64-1.61-.64-4s.22-3.28.64-4a4.09,4.09,0,0,1,3.78-2,3.68,3.68,0,0,1,4.06,3.41H6.7a2.07,2.07,0,0,0-2.24-1.79,2.25,2.25,0,0,0-2,.91c-.49.66-.63,1.45-.63,3.51S2,32,2.47,32.65a2.25,2.25,0,0,0,2,.91A2.07,2.07,0,0,0,6.7,31.76H8.49a3.68,3.68,0,0,1-4.06,3.41,4.09,4.09,0,0,1-3.78-2" fill="#004fa2"/><path d="M101.08,23.35v1.58H96.65c-.2,0-.28.08-.28.28V28c0,.2.07.27.27.27h4v1.47h-4c-.2,0-.28.08-.28.28v3.08c0,.2.07.28.27.28h4.69v1.58H95a.38.38,0,0,1-.43-.43V23.77a.38.38,0,0,1,.43-.43h6.12" fill="#004fa2"/><path d="M82.32,23.35v1.58H77.88c-.2,0-.27.08-.27.28V28c0,.2.07.27.27.27h4v1.47h-4c-.2,0-.27.08-.27.28v3.08c0,.2.07.28.27.28h4.69v1.58H76.2a.38.38,0,0,1-.43-.43V23.77a.38.38,0,0,1,.43-.43h6.12" fill="#004fa2"/><path d="M49.46,23.35v1.58H45c-.2,0-.27.08-.27.28V28c0,.2.07.27.27.27h4v1.47H45c-.2,0-.27.08-.27.28v3.08c0,.2.07.28.27.28h4.69v1.58H43.33a.38.38,0,0,1-.43-.43V23.77a.38.38,0,0,1,.43-.43h6.12" fill="#004fa2"/><path d="M27.92,31l-4.4-7.22c-.21-.35-.3-.44-.67-.44H21.76c-.29,0-.43.14-.41.43V34.94h1.71V27.15c0-.18,0-.29.15-.29s.14.1.23.23l4.51,7.42c.22.36.31.43.67.43h1a.38.38,0,0,0,.43-.43V23.35H28.29v7.6c0,.17,0,.29-.14.29s-.15-.11-.23-.23" fill="#004fa2"/><path d="M117.15,28.44c-.2,0-.28-.07-.28-.28v-3c0-.2.08-.28.28-.28h1.52c1.44,0,2.29.55,2.29,1.82s-.85,1.77-2.29,1.77h-1.52m.94,1.38c.16,0,.21,0,.27.12l2.63,5h2.15l-2.9-5.29a2.91,2.91,0,0,0,2.58-3c0-1.9-1.2-3.27-3.72-3.27h-3.58a.49.49,0,0,0-.5.5V34.94h1.84V30.09c0-.2.08-.28.28-.28ZM67.62,28.44c-.2,0-.28-.07-.28-.28v-3c0-.2.08-.28.28-.28h1.52c1.44,0,2.29.55,2.29,1.82s-.85,1.77-2.29,1.77Zm.94,1.38c.15,0,.21,0,.27.12l2.63,5h2.15l-2.89-5.29a2.91,2.91,0,0,0,2.58-3c0-1.9-1.2-3.27-3.72-3.27H66a.49.49,0,0,0-.5.5V34.94h1.84V30.09c0-.2.08-.28.28-.28ZM53.9,28.44c-.2,0-.28-.07-.28-.28v-3c0-.2.08-.28.28-.28h1.52c1.44,0,2.29.55,2.29,1.82s-.85,1.77-2.29,1.77Zm.94,1.38c.15,0,.21,0,.27.12l2.63,5H59.9L57,29.65a2.91,2.91,0,0,0,2.58-3c0-1.9-1.2-3.27-3.72-3.27H52.29a.49.49,0,0,0-.5.5V34.94h1.84V30.09c0-.2.08-.28.28-.28Zm-40.25-4c0-.12-.07-.2-.17-.2s-.13.08-.17.2l-1.43,4.69c-.06.18,0,.27.2.27h2.83c.2,0,.25-.08.2-.27Zm-2.12,6.44c-.15,0-.22,0-.28.21l-.79,2.51H9.54l3.65-11.13a.56.56,0,0,1,.61-.46h1.36a.58.58,0,0,1,.61.46l3.71,11.13h-2l-.78-2.51c-.06-.17-.13-.21-.27-.21Zm95.73-6.44c0-.12-.07-.2-.17-.2s-.14.08-.17.2l-1.44,4.69c-.05.18,0,.27.2.27h2.84c.2,0,.25-.08.2-.27Zm-2.12,6.44c-.15,0-.22,0-.28.21L105,34.94h-1.88l3.65-11.13a.56.56,0,0,1,.6-.46h1.36a.58.58,0,0,1,.61.46l3.71,11.13h-2l-.78-2.51c-.06-.17-.13-.21-.27-.21Z" fill="#004fa2"/><path d="M157.33,31.06a3.86,3.86,0,0,1-4.19,4.16A3.78,3.78,0,0,1,149,31.06V23.35h1.84V31.2a2.31,2.31,0,1,0,4.6,0V23.35h1.84v7.71" fill="#004fa2"/><path d="M161.88,31a.52.52,0,0,0-.16.46v3.46h-1.84V23.35h1.84v5.13c0,.21.16.25.29.08l4.27-5.2h2.14l-3.64,4.26a.26.26,0,0,0,0,.38l4.25,7h-2.15l-3.31-5.54c-.08-.12-.17-.14-.28,0L161.88,31" fill="#004fa2"/><path d="M141.38,29.73c.2,0,.28.07.28.28v4.93h1.84V23.35h-1.84V28c0,.2-.08.28-.28.28h-4c-.2,0-.28-.07-.28-.27V23.35H135.3V34.94h1.84V30c0-.2.08-.27.28-.27h4" fill="#004fa2"/><path d="M90.49,31.8c0-.87-.49-1.35-1.62-1.65l-1.48-.38c-2.08-.53-2.9-1.45-2.88-3.22,0-2.09,1.56-3.44,3.89-3.44A4.73,4.73,0,0,1,92,24.45l-1,1.28a3.15,3.15,0,0,0-2.52-1c-1.3,0-2.06.63-2.1,1.74,0,.89.5,1.43,1.63,1.7l1.56.39c2,.5,2.87,1.49,2.82,3.23-.06,2.17-1.67,3.42-4.41,3.42a4.91,4.91,0,0,1-3.91-1.62l1.16-1.27a3.58,3.58,0,0,0,2.83,1.3c1.53,0,2.38-.63,2.39-1.76" fill="#004fa2"/><path d="M125.43,33.16c-.42-.74-.64-1.61-.64-4s.22-3.28.64-4a4.09,4.09,0,0,1,3.78-2,3.68,3.68,0,0,1,4.06,3.41h-1.79a2.07,2.07,0,0,0-2.24-1.79,2.24,2.24,0,0,0-2,.91c-.49.66-.63,1.45-.63,3.51s.14,2.84.63,3.5a2.25,2.25,0,0,0,2,.91,2.07,2.07,0,0,0,2.24-1.79h1.79a3.68,3.68,0,0,1-4.06,3.41,4.09,4.09,0,0,1-3.78-2" fill="#004fa2"/></svg>