<svg xmlns="http://www.w3.org/2000/svg" viewBox="0 0 175.75 50.55"><title>tesco</title><path d="M13.48,41.79h21.4c.25,0,.25.13,0,.25C32.5,43.17,29,46.67,29,46.67c-2.38,2.38-4.25,3.88-8.38,3.88H.09c-.13,0-.13-.25,0-.25a34.11,34.11,0,0,0,5.63-4.76,10.7,10.7,0,0,1,7.76-3.75Z" fill="#00539f" fill-rule="evenodd"/><path d="M154.13,41.79h21.52c.13,0,.13.13,0,.25-2.5,1.13-5.88,4.63-5.88,4.63-2.5,2.38-4.38,3.88-8.38,3.88H140.87c-.13,0-.13-.25,0-.25a34.11,34.11,0,0,0,5.63-4.76,10.41,10.41,0,0,1,7.63-3.75Z" fill="#00539f" fill-rule="evenodd"/><path d="M48.64,41.79H70c.25,0,.25.13,0,.25-2.38,1.13-5.88,4.63-5.88,4.63-2.38,2.38-4.25,3.88-8.38,3.88H35.38c-.25,0-.25-.25-.13-.25a34.1,34.1,0,0,0,5.63-4.76,10.7,10.7,0,0,1,7.76-3.75Z" fill="#00539f" fill-rule="evenodd"/><path d="M83.81,41.79h21.4c.25,0,.25.13,0,.25-2.38,1.13-5.88,4.63-5.88,4.63-2.38,2.38-4.25,3.88-8.26,3.88H70.54c-.12,0-.12-.25-.12-.25C72.8,49.05,76,45.55,76,45.55a10.7,10.7,0,0,1,7.76-3.75Z" fill="#00539f" fill-rule="evenodd"/><path d="M119,41.79h21.52c.13,0,.13.13-.12.25-2.38,1.13-5.88,4.63-5.88,4.63-2.38,2.38-4.25,3.88-8.26,3.88H105.7c-.13,0-.13-.25,0-.25a34.1,34.1,0,0,0,5.63-4.76A10.17,10.17,0,0,1,119,41.79Z" fill="#00539f" fill-rule="evenodd"/><path d="M124.85,0c-13.51,0-22.52,7-22.52,17.64,0,9.76,8.26,16.27,20.52,16.27a42.11,42.11,0,0,0,11.64-1.63V24.15a12.93,12.93,0,0,1-10.14,4.5c-7.26,0-12.26-4.75-12.26-11.76S117.22,5,124.47,5A12.66,12.66,0,0,1,134,9.13V.88A50.3,50.3,0,0,0,124.85,0Z" fill="#ed1b2e" fill-rule="evenodd"/><path d="M24,5.76c5,0,11,1,13.51,3.13V1.13H2V8.88c2.5-2.13,7.88-3,13.64-3V27.15c0,3.13-.25,4-1.5,5.63H25.5c-1.25-1.63-1.5-2.5-1.5-5.63V5.76Z" fill="#ed1b2e" fill-rule="evenodd"/><path d="M60.28,13.39c-2,.75-5.76.88-7.63.88h-3V5.88h4c3.63,0,9.76.75,12.14,2.88V1.13H39.89c1.25,1.5,1.5,2.5,1.5,5.51V27.15c0,3.13-.25,4-1.38,5.63H67.54V25c-3.75,2.88-11,2.88-13.89,2.88h-4V19h2.88a28.12,28.12,0,0,1,7.76,1V13.39Z" fill="#ed1b2e" fill-rule="evenodd"/><path d="M98.7,2.13A47,47,0,0,0,85.06,0C77.55,0,70.29,2.38,70.29,10.39c0,13.76,22.52,6.51,22.52,15,0,2.75-4,3.88-7.26,3.88A24.23,24.23,0,0,1,70.79,25v7a47.48,47.48,0,0,0,14.39,2c7.76,0,15-2.25,15-10.39,0-14.52-22.4-8-22.4-15,0-2.88,3.63-3.88,6.76-3.88,5.26,0,11,1.63,14.14,4.75V2.13Z" fill="#ed1b2e" fill-rule="evenodd"/><path d="M156.51.5c-12.14,0-20.77,7-20.77,16.89s7.76,16.14,19.15,16.14c12.26,0,20.77-6.76,20.77-16.77C175.65,7,167.9.5,156.51.5Zm-.88,28.28C149.13,28.78,145,23.52,145,17s4.13-11.76,10.64-11.76S166.27,10.51,166.27,17,162,28.78,155.63,28.78Z" fill="#ed1b2e" fill-rule="evenodd"/></svg>