<svg xmlns="http://www.w3.org/2000/svg" viewBox="0 0 369.63 154.25"><title>youtube</title><path d="M138,124.83h-14v-8.11c-5.31,6.09-9.82,9.17-14.73,9.17-4.31,0-7.3-2-8.8-5.7-.91-2.23-1.55-5.72-1.55-10.84v-59h14v60.5c.33,2.07,1.21,2.83,3,2.83,2.68,0,5.11-2.33,8.08-6.52V50.31h14Z" fill="#010101"/><path d="M88.53,74.66c0-8-1.6-13.94-4.43-17.71-3.73-5.1-9.59-7.18-15.49-7.18-6.68,0-11.77,2.09-15.49,7.18-2.87,3.76-4.41,9.81-4.41,17.77v26.5c0,7.92,1.37,13.39,4.24,17.11a19.53,19.53,0,0,0,15.68,7.77,19.74,19.74,0,0,0,15.79-7.77c2.83-3.73,4.13-9.2,4.13-17.11Zm-14,28c.74,7.38-1.55,11-5.91,11s-6.64-3.66-5.9-11V73.18c-.74-7.38,1.55-10.84,5.9-10.84s6.65,3.46,5.91,10.84Z" fill="#010101"/><path d="M33.2,84.25v40.58H18.44V84.25S3.15,34.5,0,25.23H15.49L25.85,64.09l10.3-38.86H51.64Z" fill="#010101"/><path d="M282.14,62.16a10.38,10.38,0,0,0-7,3.36v44.74a10.28,10.28,0,0,0,7,3.36c3.85,0,5.59-2.83,5.59-10.21V71.71C287.73,64.33,286,62.16,282.14,62.16Z" fill="#d92632"/><path d="M337.15,71c0-6.82-1.76-8.87-6.19-8.87s-6.35,1.88-6.35,8.78V79.1h12.54Z" fill="#d92632"/><path d="M367.43,33.28s-2.15-15.11-8.76-21.77c-8.38-8.73-17.77-8.78-22.07-9.29C305.77,0,259.53,0,259.53,0h-.1s-46.24,0-77.07,2.22c-4.31.51-13.7.56-22.07,9.29-6.61,6.66-8.75,21.77-8.75,21.77a330,330,0,0,0-2.2,35.49V85.41a330,330,0,0,0,2.2,35.49s2.15,15.11,8.75,21.77c8.38,8.74,19.39,8.46,24.29,9.37,17.63,1.68,74.9,2.2,74.9,2.2s46.29-.07,77.12-2.29c4.31-.51,13.7-.56,22.07-9.29,6.61-6.66,8.76-21.77,8.76-21.77a330.35,330.35,0,0,0,2.2-35.49V68.77A330.35,330.35,0,0,0,367.43,33.28ZM197.72,124.83H183V40H167.47V26L214,26V40H197.72Zm53.12,0h-14v-8.11c-5.32,6.09-9.82,9.17-14.73,9.17-4.31,0-7.3-2-8.8-5.7-.91-2.23-1.56-5.72-1.56-10.84V51.05h14v59.76c.33,2.07,1.21,2.83,3,2.83,2.68,0,5.11-2.33,8.08-6.52V51.05h14Zm50.91-22.13c0,6.82-.58,11.63-1.48,14.75-1.78,5.48-5.67,8.33-11,8.33-4.75,0-9.61-2.86-14.08-8.38l0,7.43H261.9V26h13.28V58.2c4.31-5.31,9.2-8.33,14.11-8.33,5.32,0,8.89,3.07,10.68,8.59a51.7,51.7,0,0,1,1.79,14.72Zm29.35,10.94c3.29,0,5.2-1.79,6-5.36.13-.73.1-3.91.1-9.27h14v2.09a83.85,83.85,0,0,1-.47,8.69,19,19,0,0,1-3.12,8c-3.69,5.35-9.18,8-16.15,8s-12.3-2.51-16.17-7.55c-2.84-3.69-4.66-9.17-4.66-17V75.4c0-7.88,1.66-14,4.49-17.7a19.13,19.13,0,0,1,16-7.72,18.69,18.69,0,0,1,15.76,7.72c2.79,3.73,4.35,9.49,4.35,17.37V90.15H324.61V103.4C324.57,110.21,326.5,113.64,331.09,113.64Z" fill="#d92632"/></svg>