<svg xmlns="http://www.w3.org/2000/svg" viewBox="0 0 365 49.73"><title>pret</title><path d="M53,21.56c0,4.72-1.62,8.69-5.3,13.14V8.55c3.18,2.89,5.3,8,5.3,13m4.59-.22a23.91,23.91,0,0,0-9-18A27.07,27.07,0,0,0,43.06,0V49.34h4.59V40.86c7.42-7.57,9.9-12.38,9.9-19.52" fill="#98002e"/><path d="M74.75,21.56c0,4.72-1.63,8.69-5.31,13.14V8.55c3.19,2.89,5.31,8,5.31,13M80.4,49.48v-4.6a11.8,11.8,0,0,1-8.48-6.71c5.87-6.51,7.43-10.11,7.43-16.75a24.06,24.06,0,0,0-9.05-18.1A27.17,27.17,0,0,0,64.85,0V49.34h4.59V42.13a13.15,13.15,0,0,0,11,7.36" fill="#98002e"/><polygon points="98.59 49.34 98.59 44.73 90.96 44.73 90.96 39.3 98.59 39.3 98.59 34.7 90.96 34.7 90.96 6.78 98.59 6.78 98.59 2.19 86.36 2.19 86.36 49.34 98.59 49.34" fill="#98002e"/><polygon points="120.36 6.78 120.36 2.19 104.74 2.19 104.74 6.78 110.26 6.78 110.26 49.34 114.85 49.34 114.85 6.78 120.36 6.78" fill="#98002e"/><path d="M149.05,35.69h-4.94l2.47-13.12Zm6.7,13.54L146.59.07l-9.17,49.16h4.23l1.62-9h6.63l1.62,9Z" fill="#98002e"/><polygon points="196.65 49.23 196.65 0.77 187.27 13.96 177.81 0.77 177.81 49.23 182.4 49.23 182.4 16.78 187.27 23.34 192.07 16.78 192.07 49.23 196.65 49.23" fill="#98002e"/><path d="M217.22,35.69h-4.94l2.47-13.12Zm6.7,13.54L214.75.07l-9.17,49.16h4.23l1.62-9h6.63l1.62,9Z" fill="#98002e"/><polygon points="248.4 49.23 248.4 2.18 243.81 2.18 243.81 17.14 232.88 1.27 232.88 49.23 237.46 49.23 237.46 16.57 243.81 25.81 243.81 49.23 248.4 49.23" fill="#98002e"/><path d="M274.64,41.26V34.42h-8.74V39H270v2c0,2.68-1.12,4.09-3.31,4.09s-3.32-1.41-3.32-4.09V10.43c0-2.68,1.13-4.09,3.32-4.09S270,7.75,270,10.43V13h4.59V10.22c0-4.94-3.31-8.46-7.9-8.46s-7.9,3.53-7.9,8.46v31c0,4.87,3.32,8.46,7.9,8.46s7.9-3.59,7.9-8.46" fill="#98002e"/><polygon points="296.78 49.23 296.78 44.65 289.16 44.65 289.16 39.22 296.78 39.22 296.78 34.63 289.16 34.63 289.16 6.77 296.78 6.77 296.78 2.18 284.58 2.18 284.58 49.23 296.78 49.23" fill="#98002e"/><path d="M317.52,21.55c0,4.67-1.6,8.58-5.23,13V8.71c3.14,2.86,5.23,7.88,5.23,12.84m5.58,27.55V44.56a11.65,11.65,0,0,1-8.37-6.63c5.79-6.42,7.33-10,7.33-16.53a23.75,23.75,0,0,0-8.93-17.86A27.59,27.59,0,0,0,307.76.27V49h4.54V41.84a12.94,12.94,0,0,0,10.81,7.26" fill="#98002e"/><polygon points="350.71 10.86 354.54 22.1 365 22.1 356.63 27.99 359.89 38.22 350.71 32.25 341.59 38.14 344.85 27.99 336.32 22.1 346.87 22.1 350.71 10.86" fill="#98002e"/><polygon points="14.38 11.17 18.21 22.41 28.67 22.41 20.3 28.3 23.55 38.53 14.38 32.56 5.26 38.45 8.52 28.3 0 22.41 10.54 22.41 14.38 11.17" fill="#98002e"/></svg>