<svg version="1.1" id="Layer_1" xmlns="http://www.w3.org/2000/svg" x="0" y="0" viewBox="0 0 400 400" xml:space="preserve"><style>.st0{fill:#333}</style><path class="st0" d="M200 0C89.54 0 0 89.54 0 200s89.54 200 200 200 200-89.54 200-200S310.46 0 200 0zm-33.6 198.42c-12.45 7.65-28.04 11.48-46.75 11.48-2.69 0-6.12-.06-10.31-.18s-7.31-.18-9.34-.18v45.41c0 9.39 1.44 15.3 4.33 17.73 2.89 2.43 9.34 4 19.35 4.73v4.64H53.73v-4.64c9.52-.89 15.46-2.77 17.82-5.65 2.36-2.88 3.54-9.46 3.54-19.74V143.73c0-8.71-1.32-14.44-3.97-17.21-2.65-2.77-8.44-4.52-17.4-5.25v-4.64h65.92c21.16 0 37.35 4.11 48.58 12.33 11.23 8.22 16.85 19.04 16.85 32.47 0 17.01-6.22 29.34-18.67 36.99zm159.91 74.34c-14 8.95-29.17 13.43-45.53 13.43-26.86 0-48.18-8.58-63.96-25.76-14.57-15.87-21.85-35.69-21.85-59.45 0-24.33 7.69-44.76 23.07-61.28 16.19-17.33 37.27-26 63.23-26 9.03 0 18.31 1.34 27.83 4.03s14.85 4.03 15.99 4.03c2.36 0 4.6-.65 6.71-1.95 2.12-1.3 3.58-3.34 4.39-6.1h5.25l2.32 56.15h-5.74c-3.34-11.15-7.69-20.14-13.06-26.98-10.25-12.86-24.05-19.29-41.38-19.29-17.5 0-31.8 6.92-42.91 20.75-11.11 13.84-16.66 32.88-16.66 57.13 0 22.3 5.84 40.1 17.52 53.41s26.47 19.96 44.37 19.96c12.94 0 24.86-3.09 35.77-9.28 6.27-3.5 13.14-8.79 20.63-15.87l4.64 4.64c-5.54 7-12.41 13.14-20.63 18.43z"/><path class="st0" d="M138.08 130.55c-7.08-3.09-16.03-4.64-26.86-4.64-5.13 0-8.28.51-9.46 1.53-1.18 1.02-1.77 3.28-1.77 6.77v65.19c4.47.41 7.4.65 8.79.73 1.38.08 2.73.12 4.03.12 11.47 0 20.51-1.63 27.1-4.88 11.96-5.94 17.94-17.05 17.94-33.33 0-15.3-6.59-25.79-19.77-31.49z"/></svg>